<?xml version="1.0" standalone="no"?>
<!DOCTYPE svg PUBLIC "-//W3C//DTD SVG 20010904//EN"
 "http://www.w3.org/TR/2001/REC-SVG-20010904/DTD/svg10.dtd">
<svg version="1.0" xmlns="http://www.w3.org/2000/svg"
 width="700.000000pt" height="700.000000pt" viewBox="0 0 700.000000 700.000000"
 preserveAspectRatio="xMidYMid meet">
<metadata>
Created by potrace 1.11, written by Peter Selinger 2001-2013
</metadata>
<g transform="translate(0.000000,700.000000) scale(0.100000,-0.100000)"
fill="#000000" stroke="none">
<path d="M2597 6564 c-1 -1 -21 -4 -44 -7 -97 -14 -170 -47 -229 -105 -128
-123 -152 -347 -83 -756 l33 -199 -24 -86 c-13 -47 -32 -117 -42 -156 -28
-104 -22 -201 17 -256 38 -54 97 -84 329 -169 88 -32 323 -8 403 41 26 16 34
30 43 75 10 49 43 101 91 144 14 13 49 80 62 121 25 72 29 122 32 329 1 107 6
213 11 235 10 50 10 253 0 322 -27 188 -117 346 -228 404 -45 23 -150 48 -227
55 -92 8 -141 11 -144 8z"/>
<path d="M5157 6558 c-111 -15 -179 -59 -192 -126 -21 -113 8 -372 69 -609 8
-32 17 -69 20 -83 2 -14 11 -54 20 -90 14 -61 19 -107 31 -275 8 -111 20 -164
52 -224 68 -129 189 -189 380 -189 258 -1 398 110 433 342 19 126 5 256 -46
444 -28 106 -34 119 -115 292 -32 69 -71 157 -85 195 -46 120 -120 217 -194
255 -61 31 -161 60 -229 66 -37 3 -70 7 -76 8 -5 1 -36 -1 -68 -6z"/>
<path d="M1467 6544 c-146 -34 -220 -116 -253 -278 -8 -40 -7 -144 2 -226 14
-131 10 -274 -11 -350 -4 -16 -9 -46 -26 -164 -10 -76 -13 -214 -4 -261 14
-78 54 -156 103 -203 93 -89 247 -123 377 -84 93 28 202 98 268 171 51 57 60
82 46 137 -12 45 -7 132 10 209 25 111 31 161 35 290 2 77 7 156 11 175 12 66
12 255 0 305 -45 191 -177 281 -423 289 -42 1 -103 -3 -135 -10z"/>
<path d="M3657 6540 c-56 -14 -93 -36 -117 -69 -34 -49 -41 -171 -16 -321 5
-32 15 -76 77 -340 23 -95 21 -146 -11 -322 -7 -35 -14 -74 -16 -88 -2 -14 -7
-41 -10 -60 -12 -73 -12 -257 0 -326 41 -230 193 -342 464 -342 87 0 115 4
150 20 172 82 220 314 156 748 -7 52 -16 105 -18 116 -2 12 -7 37 -10 55 -3
19 -9 56 -14 82 -10 51 -9 175 3 270 42 345 -54 512 -330 572 -51 12 -268 15
-308 5z"/>
<path d="M4760 4369 c-195 -25 -362 -96 -481 -207 -100 -93 -160 -203 -184
-337 -21 -125 -26 -479 -10 -820 25 -532 3 -792 -90 -1039 -100 -268 -233
-420 -376 -433 -52 -5 -67 -2 -121 25 -95 46 -213 171 -298 312 -139 231 -201
498 -235 1010 -3 47 -8 108 -10 135 -2 28 -7 86 -10 130 -6 84 -12 144 -21
210 -3 22 -7 56 -10 75 -3 19 -9 55 -14 80 -5 25 -12 57 -14 71 -15 94 -82
281 -129 361 -86 147 -323 263 -657 322 -132 24 -136 24 -213 31 -195 17 -262
7 -405 -61 -42 -20 -123 -54 -180 -75 -144 -52 -209 -102 -244 -186 -12 -31
-11 -28 -27 -93 -10 -43 -8 -270 2 -287 3 -5 8 -40 12 -78 3 -39 8 -77 10 -85
9 -34 17 -255 20 -575 2 -187 6 -362 9 -390 3 -27 8 -77 12 -110 3 -33 8 -69
9 -80 2 -11 7 -40 11 -65 4 -25 8 -49 10 -55 4 -16 24 -98 28 -115 44 -169
276 -597 446 -819 90 -118 140 -159 417 -342 142 -94 270 -179 285 -190 15
-10 30 -19 32 -19 3 0 36 -19 73 -41 125 -77 352 -184 463 -219 78 -25 199
-59 225 -63 17 -3 66 -12 110 -21 127 -24 192 -30 325 -30 111 -1 276 10 290
19 3 2 26 6 50 10 82 11 333 77 470 122 173 57 394 139 735 270 229 89 397
222 531 423 155 234 254 519 369 1070 20 97 35 171 40 200 3 19 10 53 15 75
12 57 39 243 45 311 2 33 7 82 9 109 2 28 7 106 11 175 4 69 9 133 10 142 2 9
7 77 11 150 16 295 7 481 -31 615 -40 140 -90 210 -180 252 -54 26 -92 37
-205 56 -19 4 -111 8 -205 10 -201 5 -256 10 -390 35 -161 31 -262 40 -345 29z"/>
</g>
</svg>
