<svg
  width="220px"
  height="7px"
  viewBox="0 0 220 7"
  version="1.1"
  xmlns="http://www.w3.org/2000/svg"
  xmlns:xlink="http://www.w3.org/1999/xlink"
>
  <title>Group 88</title>
  <desc>Created with Sketch.</desc>
  <defs>
    <polygon
      id="path-1"
      points="0.71895 0.924 2.21895 0.924 2.21895 1.7337055 0.71895 1.7337055"
    ></polygon>
    <polygon
      id="path-3"
      points="0.383051262 0.924 1.88305126 0.924 1.88305126 1.7674 0.383051262 1.7674"
    ></polygon>
    <polygon
      id="path-5"
      points="0.42335 0.11639475 1.92335 0.11639475 1.92335 1 0.42335 1"
    ></polygon>
    <polygon
      id="path-7"
      points="0.38115 0.924 1.88115 0.924 1.88115 1.8732 0.38115 1.8732"
    ></polygon>
    <polygon
      id="path-9"
      points="0.3492 0.924 1.8492 0.924 1.8492 1.64097955 0.3492 1.64097955"
    ></polygon>
    <polygon
      id="path-11"
      points="0.5 0.267 1.76945 0.267 1.76945 1.267 0.5 1.267"
    ></polygon>
    <polygon
      id="path-13"
      points="0.000827067669 0.924 219.275489 0.924 219.275489 6.99991329 0.000827067669 6.99991329"
    ></polygon>
  </defs>
  <g
    id="Homepage-Layout"
    stroke="none"
    stroke-width="1"
    fill="none"
    fill-rule="evenodd"
  >
    <g
      id="UnMute-Homepage-v2-Copy"
      transform="translate(-102.000000, -298.000000)"
    >
      <g
        id="Group-88"
        transform="translate(101.000000, 298.000000)"
      >
        <path
          d="M190.976792,2.549 C190.998792,2.524 191.016792,2.493 191.024792,2.451 C190.980792,2.49 190.970792,2.522 190.976792,2.549"
          id="Fill-1"
          fill="#F4DB8F"
        ></path>
        <path
          d="M172.878,1.524 L173.122,1.476 C172.962,1.483 172.902,1.501 172.878,1.524"
          id="Fill-3"
          fill="#F4DB8F"
        ></path>
        <path
          d="M200.588,2.481 C200.572,2.489 200.572,2.496 200.56,2.504 C200.752,2.508 201.014,2.513 201.44,2.519 L200.588,2.481 Z"
          id="Fill-5"
          fill="#F4DB8F"
        ></path>
        <g id="Group-9" transform="translate(135.000000, 0.000000)">
          <mask id="mask-2" fill="white">
            <use xlink:href="#path-1"></use>
          </mask>
          <g id="Clip-8"></g>
          <path
            d="M1.36395,1.2378 L1.57395,1.2338 C1.47945,1.2328 1.41795,1.2228 1.36395,1.2378"
            id="Fill-7"
            fill="#F4DB8F"
            mask="url(#mask-2)"
          ></path>
        </g>
        <path
          d="M158.177,1.46405015 C158.095,1.50605015 157.959,1.52105015 157.823,1.53405015 C157.993,1.54105015 158.131,1.53105015 158.177,1.46405015"
          id="Fill-10"
          fill="#F4DB8F"
        ></path>
        <path
          d="M206.179,4.571 L205.821,4.429 C205.829,4.49 205.955,4.554 206.179,4.571"
          id="Fill-12"
          fill="#F4DB8F"
        ></path>
        <path
          d="M217.020395,4.516 C217.010395,4.506 217.008395,4.497 216.986395,4.484 C216.968395,4.497 216.988395,4.507 217.020395,4.516"
          id="Fill-14"
          fill="#F4DB8F"
        ></path>
        <path
          d="M213.178,3.468 C213.072,3.481 212.948,3.507 212.822,3.532 C212.974,3.527 213.166,3.526 213.178,3.468"
          id="Fill-16"
          fill="#F4DB8F"
        ></path>
        <path
          d="M211.916019,3.518 C211.972019,3.506 212.028019,3.494 212.084019,3.482 C211.990019,3.487 211.914019,3.493 211.916019,3.518"
          id="Fill-18"
          fill="#F4DB8F"
        ></path>
        <path
          d="M2.502,2.40258223 C2.136,2.39758223 1.826,2.50758223 1.498,2.59758223 L2.502,2.40258223 Z"
          id="Fill-20"
          fill="#F4DB8F"
        ></path>
        <g
          id="Group-24"
          transform="translate(102.000000, 0.000000)"
        >
          <mask id="mask-4" fill="white">
            <use xlink:href="#path-3"></use>
          </mask>
          <g id="Clip-23"></g>
          <path
            d="M1.10385,1.2969 L1.16385,1.2379 C1.10685,1.2579 1.09785,1.2779 1.10385,1.2969"
            id="Fill-22"
            fill="#F4DB8F"
            mask="url(#mask-4)"
          ></path>
        </g>
        <path
          d="M2.129,3.51444828 L1.871,3.48544828 C1.965,3.50944828 2.049,3.51544828 2.129,3.51444828"
          id="Fill-25"
          fill="#F4DB8F"
        ></path>
        <path
          d="M200.556031,5.44022136 C200.192031,5.58122136 199.436031,5.41722136 199.444031,5.55322136 C199.834031,5.52922136 200.386031,5.63222136 200.556031,5.44022136"
          id="Fill-27"
          fill="#F4DB8F"
        ></path>
        <g id="Group-31" transform="translate(95.000000, 6.000000)">
          <mask id="mask-6" fill="white">
            <use xlink:href="#path-5"></use>
          </mask>
          <g id="Clip-30"></g>
          <path
            d="M1.26485,0.6123 L1.08185,0.6203 C1.16885,0.6213 1.22435,0.6183 1.26485,0.6123"
            id="Fill-29"
            fill="#F4DB8F"
            mask="url(#mask-6)"
          ></path>
        </g>
        <path
          d="M1.85,3.503 L2.15,3.535 C2.124,3.509 2.09,3.488 2.058,3.465 C1.992,3.486 1.922,3.5 1.85,3.503"
          id="Fill-32"
          fill="#F4DB8F"
        ></path>
        <g id="Group-36" transform="translate(67.000000, 0.000000)">
          <mask id="mask-8" fill="white">
            <use xlink:href="#path-7"></use>
          </mask>
          <g id="Clip-35"></g>
          <path
            d="M1.0944,1.3862 L1.1049,1.3862 C1.1274,1.3772 1.1454,1.3712 1.1679,1.3602 L1.0944,1.3862 Z"
            id="Fill-34"
            fill="#F4DB8F"
            mask="url(#mask-8)"
          ></path>
        </g>
        <g id="Group-39" transform="translate(65.000000, 0.000000)">
          <mask id="mask-10" fill="white">
            <use xlink:href="#path-9"></use>
          </mask>
          <g id="Clip-38"></g>
          <path
            d="M0.92145,1.1665 C1.03845,1.1515 1.15095,1.1365 1.27695,1.1195 C1.08795,1.1055 0.98895,1.1295 0.92145,1.1665"
            id="Fill-37"
            fill="#F4DB8F"
            mask="url(#mask-10)"
          ></path>
        </g>
        <g id="Group-42" transform="translate(0.000000, 2.000000)">
          <mask id="mask-12" fill="white">
            <use xlink:href="#path-11"></use>
          </mask>
          <g id="Clip-41"></g>
          <path
            d="M1.2347,0.711 L0.8042,0.823 C0.9602,0.806 1.0997,0.761 1.2347,0.711"
            id="Fill-40"
            fill="#F4DB8F"
            mask="url(#mask-12)"
          ></path>
        </g>
        <path
          d="M45.89,1.50955339 C45.966,1.50455339 46.04,1.49955339 46.11,1.49055339 C46.014,1.48955339 45.942,1.49555339 45.89,1.50955339"
          id="Fill-43"
          fill="#F4DB8F"
        ></path>
        <path
          d="M159.899155,1.49029737 C159.953155,1.50329737 160.029155,1.51029737 160.093155,1.52029737 C160.115155,1.48829737 160.101155,1.46529737 159.899155,1.49029737"
          id="Fill-45"
          fill="#F4DB8F"
        ></path>
        <path
          d="M146.003,5.4985 L145.997,5.4985 L145.997,5.5015 C145.999,5.4995 146.003,5.4995 146.003,5.4985"
          id="Fill-47"
          fill="#F4DB8F"
        ></path>
        <path
          d="M146.441,5.41416036 C146.163,5.38416036 145.769,5.48616036 145.559,5.59116036 C145.837,5.59016036 146.099,5.56016036 146.441,5.41416036"
          id="Fill-49"
          fill="#F4DB8F"
        ></path>
        <path
          d="M143.948,5.4915 C143.984,5.4975 144.01,5.5025 144.052,5.5085 C144.014,5.4985 143.984,5.4925 143.948,5.4915"
          id="Fill-51"
          fill="#F4DB8F"
        ></path>
        <path
          d="M159.004556,5.5075 C159.004556,5.5035 159.006556,5.4965 159.004556,5.4925 C158.998556,5.4975 158.996556,5.5005 158.994556,5.5055 L159.004556,5.5075 Z"
          id="Fill-53"
          fill="#F4DB8F"
        ></path>
        <path
          d="M156.122,5.531 C156.06,5.504 155.972,5.483 155.878,5.469 C155.938,5.496 156.02,5.519 156.122,5.531"
          id="Fill-55"
          fill="#F4DB8F"
        ></path>
        <path
          d="M137.005,5.503 C137.009,5.502 137.009,5.499 137.009,5.497 C137.001,5.497 136.999,5.499 136.991,5.499 C136.997,5.5 137.001,5.502 137.005,5.503"
          id="Fill-57"
          fill="#F4DB8F"
        ></path>
        <g id="Group-61" transform="translate(1.000000, 0.000000)">
          <mask id="mask-14" fill="white">
            <use xlink:href="#path-13"></use>
          </mask>
          <g id="Clip-60"></g>
          <path
            d="M108.695714,6.9937 C111.45812,6.8997 115.034361,6.6007 117.775263,6.6707 C118.367444,6.3787 119.237519,6.3657 120.107594,6.2977 L120.205188,6.6807 L120.931353,6.5547 C121.230752,6.6687 120.37391,6.6287 120.898271,6.7717 L121.171203,6.5327 C121.230752,6.6687 123.04203,6.6147 121.824586,6.8947 L124.653158,6.8847 C125.278421,6.8937 125.015414,6.5637 125.708496,6.6557 C125.850752,6.7667 125.460376,6.7327 125.518271,6.8697 C127.599173,7.1457 127.91015,6.1177 129.848797,6.2837 L129.683383,6.3347 C130.012556,6.2317 130.639474,6.2427 130.647744,6.1877 C130.393008,5.8027 130.30203,6.3987 129.708195,6.1727 C129.756165,5.8477 130.442632,5.9947 130.401278,5.7477 C130.854511,5.8637 131.120827,5.6777 131.514511,5.6567 C132.191053,5.8577 133.157068,5.7077 133.666541,5.9607 C133.995714,5.8567 134.361278,5.5357 135.069248,5.5197 C135.580376,5.7727 134.953459,5.7637 135.644887,5.8557 L135.75406,5.6667 C136.321429,5.6927 136.233759,5.7467 136.21391,5.8357 C136.820977,5.8417 136.715113,5.5747 137.477669,5.6927 L137.055865,5.8777 C137.618271,5.8037 137.848195,5.8347 138.632256,5.8477 C138.61406,5.9557 138.299774,5.9507 138.06985,5.9197 C138.499925,6.1977 138.797669,5.7957 139.027594,5.8257 C138.961429,5.7437 138.417218,5.7077 138.68188,5.5207 C139.070602,5.5537 139.505639,5.2617 139.786842,5.4837 L139.365038,5.6667 C140.17391,5.5167 139.795113,5.4297 140.726391,5.4987 C140.676767,5.5137 140.701579,5.5597 140.681729,5.5997 C141.267293,5.3557 142.039774,5.5717 142.911504,5.5857 L142.74609,5.6377 C143.096767,5.5717 143.288647,5.4027 143.477218,5.4147 C142.980977,5.3087 143.114962,5.2527 143.066992,5.0717 C143.726992,5.3807 144.06609,4.7067 145.139624,4.8867 C145.123083,4.9937 144.866692,5.1267 144.570602,5.0137 C144.208346,5.3337 144.165338,5.6057 143.515263,5.7577 C143.918872,5.6817 144.396917,5.6357 144.297669,5.7707 L144.421729,5.4727 C144.666541,5.4637 144.861729,5.4807 145.046992,5.4807 C145.151203,5.2917 144.545789,5.1747 145.114812,5.0497 C145.756617,4.9507 145.460526,5.3527 145.559774,5.2187 C146.441429,5.0967 145.920376,4.8977 146.77391,4.9927 C146.689549,5.0177 146.524135,5.0697 146.449699,5.0417 C147.061729,5.1597 147.948346,4.9817 148.131955,5.3397 C148.042632,5.4197 148.02609,5.5277 147.794511,5.4977 L147.804436,5.4437 C147.136165,5.7057 148.36188,5.3707 148.156767,5.6937 C148.107143,5.5017 148.967293,5.5417 149.352707,5.5757 L149.226992,5.3567 C150.507293,4.6967 149.164135,5.7907 150.434511,5.7017 C151.241729,5.5507 150.128496,5.6417 150.623083,5.4857 C151.168947,5.5217 151.375714,5.7157 152.173008,5.6177 C152.396316,5.7037 152.851203,5.8187 152.892556,6.0637 C153.377218,5.9627 154.368045,6.1687 154.640977,5.9287 C153.808947,5.7257 153.817218,6.1877 152.842932,5.8727 L153.112556,5.6327 C153.784135,5.6427 154.642632,5.5187 155.107444,5.6037 C155.011504,5.5577 154.97015,5.4957 155.028045,5.4447 C155.984135,5.3507 156.257068,5.1097 157.188346,5.1797 C157.312406,5.3977 156.768195,5.3627 156.371203,5.3837 C156.973308,5.5567 156.99812,5.3937 157.931053,5.4617 C157.982331,5.6537 157.304135,5.4517 157.198271,5.6407 L158.228797,5.5767 C158.223835,5.5877 158.228797,5.6007 158.228797,5.6157 C158.374361,5.2937 159.014511,5.6397 159.644737,5.5417 C161.138421,5.5387 161.361729,5.1067 162.185489,4.8477 C162.408797,4.9327 162.474962,5.0147 162.382331,5.0957 C162.013459,4.9537 162.079624,5.0657 161.95391,5.1497 C162.456767,5.1157 163.060526,5.4597 162.779323,5.5907 C163.579925,5.4947 162.48985,5.4227 162.97782,5.3207 L164.074511,5.3377 C163.943835,5.1737 163.556767,5.1397 164.124135,5.0127 C164.60218,4.9657 164.833759,4.9967 165.459023,5.0057 C165.369699,5.0867 165.659173,5.2537 165.189398,5.2457 C165.492105,5.3067 165.965188,5.3127 166.145489,5.1527 C165.459023,5.0057 167.266992,5.0077 166.754211,4.7547 L167.439023,4.9007 C167.283534,4.8987 167.266992,5.0077 167.037068,4.9757 C167.23391,5.2237 167.594511,4.9037 167.834361,4.8787 C168.075865,4.9257 168.702782,4.9457 168.755714,5.0417 C168.970752,4.9717 169.500075,5.0237 169.600977,5.1507 C169.923534,5.0997 169.624135,4.9877 169.718421,4.9077 L170.813459,4.9237 C170.873008,5.0617 170.967293,5.4437 170.803534,5.4957 C171.217068,5.3667 170.947444,5.0897 171.574361,5.0997 C171.217068,5.3667 172.403083,5.3027 171.886992,5.6217 C172.24594,5.8167 173.26985,5.8047 173.832256,5.7317 C174.17797,5.5187 173.22188,5.6147 173.254962,5.3967 C174.836316,5.3127 174.927293,4.7147 176.09015,4.8147 L175.787444,4.7557 C176.511955,4.6297 176.429248,4.6577 176.851053,4.4727 C176.652556,4.7417 177.681429,5.1927 178.870752,5.1307 C178.97,4.9937 178.202481,4.8747 178.394361,4.6607 L179.185038,4.6177 C179.241278,4.6387 179.155263,4.6837 179.054361,4.7187 C179.762331,4.6207 180.376015,5.0637 180.57782,4.7477 L181.302331,5.1397 L181.016165,4.9717 C181.112105,4.8387 181.90609,4.7957 182.06985,4.7427 C182.880376,4.5917 183.176466,4.7057 183.623083,4.8757 C183.479173,4.7647 183.125188,4.5147 183.763684,4.4707 C183.760376,4.9067 185.103534,4.6267 185.086992,4.8527 C185.345038,4.8467 185.804887,4.9807 185.831353,4.7997 L185.791654,5.0717 C185.847895,4.6917 186.787444,4.7057 187.506992,4.6357 C187.34985,5.1507 188.296015,4.5927 188.620226,5.0597 C188.752556,4.7097 189.897218,4.9177 190.021278,4.6197 C190.575414,4.6007 190.522481,4.9267 190.664737,5.0367 L190.921128,4.9057 C191.202331,5.0687 192.242782,5.0897 192.863083,5.1997 L193.435414,4.8897 L193.650451,5.0287 C193.741429,4.9497 194.219474,4.9017 193.921729,4.7877 L194.232707,4.8057 C194.254211,4.4677 194.667744,4.7107 195.291353,4.5647 C195.435263,4.6187 195.398872,4.6997 195.263233,4.7447 C195.572556,4.7467 195.44188,4.9197 195.61391,5.0327 C195.392256,4.9467 196.725489,4.4237 195.885188,4.2747 C195.825639,4.1377 196.313609,4.0357 196.619624,4.0947 L196.80985,4.3967 L197.172105,4.0767 C197.648496,4.0297 197.855263,4.2227 198.242331,4.2557 C197.846992,4.2767 197.368947,4.8417 198.392857,4.8297 C197.855263,4.8707 197.592256,5.0407 197.314361,5.1047 C197.52609,5.1167 197.633609,5.1447 197.304436,5.2747 C198.103383,5.1787 197.570752,5.0887 198.359774,5.0467 C198.320075,5.3177 198.541729,5.4037 199.233158,5.4937 L198.713759,5.2967 C198.738571,5.2637 198.773308,5.2397 198.813008,5.2237 C198.616165,5.1947 198.559925,5.1527 198.516917,5.0497 C198.67406,5.0507 199.431654,4.7097 199.563985,4.8737 C198.763383,4.4547 200.948496,4.5417 200.437368,4.2887 C200.528346,4.2097 201.080827,4.1917 201.138722,4.3277 C200.478722,4.5347 201.639925,4.6347 201.535714,4.8237 C201.780526,4.7447 201.013008,4.6247 201.343835,4.5207 C201.739173,4.5007 202.028647,4.6677 202.250301,4.7517 L202.086541,4.8037 L202.696917,4.9227 C202.796165,4.7867 202.104737,4.6957 202.665489,4.6227 C202.812707,4.6787 203.373459,4.6067 203.358571,4.7147 C203.092256,4.9017 203.290752,5.1487 202.812707,5.1967 C203.209699,5.1757 204.47015,5.1397 203.957368,4.8877 L204.430451,4.8947 C204.132707,4.7817 203.299023,4.5787 204.248496,4.5377 L204.240226,4.5927 L204.898571,4.3847 L205.188045,4.5237 C205.179774,4.4547 205.282331,4.3907 205.527143,4.3947 C205.591654,4.4757 205.823233,4.5077 205.805038,4.6167 C206.516316,4.5997 206.456767,4.4627 206.547744,4.3837 C206.944737,4.3627 207.093609,4.4187 206.91,4.5787 C207.454211,4.6137 208.403684,4.5747 208.775865,4.7167 C209.50203,4.5917 208.625338,4.6607 209.048797,4.4747 C209.683985,4.9467 211.455564,4.6477 212.641579,4.5837 C212.315714,4.1717 212.965789,4.5357 213.180827,4.1587 C212.924436,4.2897 214.310602,4.4747 213.271805,4.5947 L213.905338,4.5497 C214.34203,4.7747 212.859925,4.7237 213.518271,5.0327 C214.229549,5.0167 214.689398,4.5617 215.528045,4.7107 C215.251805,5.0047 216.173158,4.6117 215.968045,4.9347 C215.794361,5.0407 215.561128,5.0097 215.324586,5.0337 L215.473459,5.0907 C217.033308,5.1687 215.920075,4.7437 216.73391,4.5387 C217.683383,4.4977 217.486541,4.7667 217.542782,4.9047 C217.691654,4.9607 218.168045,4.9137 218.41782,4.8357 C217.840526,5.0167 217.344286,4.6567 217.608947,4.4707 C218.030752,4.8027 219.018271,4.4927 219.276316,4.3597 C217.914962,4.0117 218.335113,4.3467 217.056466,3.9717 C216.882782,4.0777 216.915865,4.3777 216.15,4.2567 C216.628045,4.1067 216.115263,4.0907 215.97797,4.0427 C216.128496,4.2147 215.448647,4.1167 215.217068,4.1887 C215.003684,4.0497 215.670301,3.7887 214.896165,3.7217 L214.75391,4.1277 C214.449549,4.0687 214.879624,3.8307 214.236165,3.9297 C214.580226,3.7167 214.126992,3.6017 215.000376,3.5337 C213.953308,3.1917 213.402481,3.7267 212.595263,3.8767 C212.676316,3.8517 212.686241,3.7977 212.767293,3.7697 C212.595263,3.8767 212.280977,3.8717 212.042782,3.8967 C211.506842,3.8067 212.461278,3.7117 212.322331,3.6007 L211.457218,3.6147 C211.439023,3.6017 211.43406,3.5947 211.43406,3.5857 C211.207444,3.6427 210.990752,3.6797 210.911353,3.5787 C211.16609,3.4487 211.266992,3.3127 211.439023,3.2057 L210.532556,3.4917 C210.63015,3.3577 209.779925,3.2637 210.425038,3.1637 L209.08188,3.2257 L208.964436,2.9517 C208.643534,3.0017 208.635263,3.0557 209.020677,3.0877 C208.560827,3.0267 206.98609,3.5747 207.222632,3.0347 C206.170602,3.2627 205.788496,3.1747 204.511504,3.3177 C205.492406,3.0617 203.381729,3.0017 204.42218,2.8817 C203.81015,2.7647 203.68609,3.0607 203.208045,3.1087 C202.754812,2.9937 202.953308,2.7237 203.439624,2.6217 L202.868947,2.7487 L202.878872,2.6947 L202.382632,2.8507 C201.854962,2.7067 202.268496,2.5767 201.722632,2.5417 L201.606842,2.7847 L201.23797,2.6437 C201.376917,2.7547 201.056015,2.8047 200.660677,2.8247 L200.668947,2.7707 L200.189248,2.8187 C200.662331,2.6697 199.749248,2.7677 199.96594,2.5937 C199.555714,2.5837 199.545789,2.5867 198.804737,2.6337 L198.937068,2.7987 C197.971053,2.9457 198.89406,2.5527 198.11,2.5417 L198.161278,2.7317 C197.02985,2.4157 196.249098,2.9197 195.413759,2.7167 C195.891805,2.6707 195.767744,2.4507 195.759474,2.5047 C195.041579,2.5767 193.870451,2.5307 193.129398,2.7637 C192.856466,2.4877 192.790301,2.4057 192.024436,2.2847 C191.470301,2.3037 191.389248,2.3297 191.208947,2.4907 C190.671353,2.3857 189.663985,2.5487 189.634211,2.3477 C189.511805,2.5077 189.151203,2.3177 188.855113,2.4527 L188.792256,2.3717 L188.84188,2.5617 C187.884135,2.1397 187.23406,2.8087 186.268045,2.4407 L186.431805,2.3897 L186.028195,2.4657 C185.96203,2.3827 186.127444,2.3307 186.143985,2.2217 L184.263233,2.1937 L184.633759,2.3347 C184.238421,2.3557 183.973759,2.5417 183.520526,2.4267 C184.26985,2.1387 182.893609,2.4177 182.771203,2.1987 L183.173158,2.1217 C182.622331,2.1407 182.622331,2.1407 182.670301,2.3327 C181.955714,2.4017 182.175714,1.9707 181.517368,2.1787 L181.987143,2.1857 C182.127744,2.2957 181.790301,2.4537 181.477669,2.4507 C181.401579,2.4207 181.178271,2.3367 181.41812,2.3127 C180.855714,2.3867 180.008797,2.2917 179.760677,2.3687 C179.454662,2.3107 179.55391,2.1747 179.719323,2.1237 C178.515113,2.2957 179.173459,2.0887 177.967594,2.2597 L177.987444,2.1517 L177.57391,2.2827 L176.980075,2.0547 L177.193459,2.1947 C176.79812,2.2157 176.551654,2.2927 176.088496,2.2317 L176.273759,2.0717 C175.157218,2.1637 174.976917,1.8067 173.919925,2.0357 C173.845489,2.0067 174.010902,1.9547 174.095263,1.9297 C173.112707,2.1857 173.349248,1.6457 172.361729,1.9567 C172.421278,1.9027 172.312105,1.8367 172.35015,1.7897 L171.90188,1.8957 L171.933308,1.6797 L171.569398,1.9997 L171.28985,1.7777 L171.116165,1.8827 C170.62985,1.4687 169.953308,1.7847 169.291654,1.4747 L169.409098,1.7487 C167.753308,2.3227 165.606241,1.4457 163.603083,1.7147 L163.636165,1.4987 L162.810752,1.7567 C162.365789,1.5867 163.075414,1.5707 162.936466,1.4597 C162.051504,1.5827 162.570902,1.7817 161.54203,1.8467 C161.012707,1.7027 161.723985,1.6867 161.970451,1.6087 C161.007744,1.7187 159.583534,1.8437 158.897068,1.7247 C158.88218,1.7537 158.840827,1.7927 158.875564,1.8057 C158.233759,1.9047 157.383534,1.8107 156.67391,1.8267 C156.690451,1.7267 156.865789,1.7097 157.042782,1.6887 C156.786391,1.6767 156.437368,1.6097 156.220677,1.7117 L156.485338,1.5237 C155.941128,1.4887 154.89406,1.6627 154.77,1.4437 C154.836165,1.5267 154.811353,1.6897 154.339925,1.6817 C154.076917,1.3507 153.061278,1.8257 152.305338,1.6507 C152.393008,1.5717 152.947143,1.5527 152.791654,1.5487 C152.411203,1.4627 152.073759,1.6187 151.742932,1.7227 L151.84218,1.5897 L150.085489,1.7807 C149.820827,1.4507 148.426391,1.8357 148.543835,1.5937 C147.915263,1.5837 149.073158,1.7377 148.279173,1.7787 C148.065789,1.6407 147.561278,1.8487 147.592707,1.6327 L147.677068,1.6067 L147.122932,1.6257 L147.470301,1.4127 C146.992256,1.4607 146.644887,1.6737 146.621729,1.8357 C146.168496,1.7197 145.526692,1.8187 145.318271,1.6267 L145.485338,1.5747 C144.213308,1.6637 143.371353,0.9977 142.375564,1.3637 C142.301128,1.3337 142.309398,1.2807 142.464887,1.2827 L141.679173,1.2717 L141.864436,1.1107 L140.567594,1.3627 L140.582481,1.2547 C139.723985,1.2137 138.382481,1.2757 137.277519,1.3127 L137.441278,1.2607 C136.238722,1.4327 136.276767,1.1607 135.396767,1.2847 C135.426541,1.2557 135.456316,1.2437 135.489398,1.2377 L134.695414,1.2447 L134.869098,1.1397 C134.283534,1.3747 133.185188,0.8417 133.550752,1.0377 C133.218271,1.1417 132.647594,1.2687 132.55,1.4027 C131.684887,1.4177 132.336617,1.2647 131.800677,1.1747 C131.173759,1.1657 131.066241,1.3527 130.217669,1.2597 L130.234211,1.1507 C129.837218,1.1717 129.590752,1.2497 129.038271,1.2687 L129.20203,1.2157 C128.303835,1.4477 128.07391,0.9007 127.372556,1.3777 C126.992105,1.2917 126.274211,1.3627 126.307293,1.1447 C125.185789,1.2907 124.312406,1.3587 123.199173,1.4507 C123.017218,1.0947 122.960977,1.4747 122.281128,1.2737 L122.33406,1.4637 C120.757669,1.4957 118.941429,1.0317 117.202932,1.1157 L117.151654,0.9237 L116.80594,1.1357 C114.933459,1.0537 112.51015,0.9887 111.01812,0.9927 C110.53015,1.0947 109.790752,1.3267 109.013308,1.2617 L109.094361,1.2347 C107.742932,1.3507 106.315414,1.4367 104.838271,1.3337 C104.929248,1.2527 104.783684,1.1967 104.947444,1.1437 C104.598421,1.3567 104.082331,1.1587 103.766391,1.1547 L104.138571,1.2957 C103.720075,1.4797 103.116316,1.3067 102.902932,1.1677 L102.241278,1.3757 C102.196617,1.3567 102.128797,1.3277 102.118872,1.2967 L102.003083,1.3987 L101.647444,1.1477 C101.483684,1.2007 100.606992,1.2687 100.335714,1.5107 C100.271203,1.4267 99.6509023,1.3637 100.128947,1.3157 L97.7056391,1.2517 L98.0844361,1.3397 C98.1340602,1.5297 97.4078947,1.6547 97.0307519,1.5677 C97.5236842,1.4117 97.068797,1.2967 96.8554135,1.1577 C96.5278947,1.2617 97.1448872,1.3247 96.971203,1.4307 C96.5593233,1.5597 95.6842857,1.6287 95.4626316,1.5437 L95.7090977,1.4667 C95.15,1.5387 94.8853383,1.2087 94.331203,1.2267 C93.8366165,1.3827 93.4677444,1.2427 93.573609,1.5697 C92.8557143,1.6397 93.2940602,1.3477 93.0608271,1.3167 C92.7250376,1.4747 91.7176692,1.3787 91.5869925,1.2117 C91.1999248,1.6957 89.6483459,1.0467 89.5060902,1.4517 L88.9139098,1.2257 C88.8957143,1.3347 88.7815789,1.5777 88.3035338,1.6247 C87.8503008,1.5087 87.9561654,1.3197 87.817218,1.2087 L87.5194737,1.6127 C84.9158647,1.1927 81.4901504,1.4937 78.6384211,1.1497 C77.3680451,1.2407 75.7684962,1.4337 74.2830827,1.3827 L74.4468421,1.3307 L72.9696992,1.2267 L74.0432331,1.4077 C73.7223308,1.4557 73.4725564,1.5347 73.1599248,1.5297 C71.5405263,1.3687 69.3769173,1.1737 67.3836842,1.3867 C66.0984211,1.8557 66.5218797,0.9787 65.2895489,1.3217 C65.3937594,1.2787 65.4334586,1.2127 65.5277444,1.1667 C64.1978195,1.3267 63.4749624,1.4097 62.1433835,1.6867 C62.2922556,1.2267 61.2766165,1.7007 61.392406,1.4587 L61.2832331,1.6467 C60.9871429,1.5337 60.2874436,1.4957 60.3866917,1.3617 L59.8011278,1.5967 L59.7481955,1.4057 C58.9690977,1.3937 57.2934586,1.5577 56.8799248,1.1717 C54.951203,1.4687 51.9009774,1.3947 49.476015,1.3307 C49.1369173,1.4887 48.4272932,1.5047 47.874812,1.5237 L47.2826316,1.2977 C46.7202256,1.3697 46.126391,1.6607 45.6003759,1.5157 C45.6036842,1.4897 45.625188,1.4707 45.6615789,1.4567 C45.0909023,1.5057 44.5450376,1.3877 44.012406,1.5997 C43.3871429,1.5907 42.7767669,1.4727 42.9653383,1.2597 C42.9090977,1.6387 41.6387218,1.2107 41.6387218,1.2107 C41.6387218,1.2107 9.46413534,0.4237 1.64007519,2.5157 C1.3787218,2.7027 0.650902256,2.8277 0.932105263,3.0487 C0.369699248,3.1217 0.106691729,2.7917 0.000827067669,2.9797 C0.766691729,3.1007 -0.232406015,3.4657 0.520225564,3.6957 L0.0388721805,3.7427 C-0.0570676692,3.8767 0.692255639,3.5887 0.576466165,3.8307 L0.708796992,3.4807 C1.09917293,3.5317 1.31255639,3.6037 1.45150376,3.7227 C1.81541353,3.5837 2.04368421,3.1087 2.92037594,3.3117 L2.67887218,3.3337 C3.39015038,3.3177 3.11721805,3.5577 3.26609023,3.6147 L3.10894737,3.6127 L3.71105263,3.7857 C3.25451128,3.6707 2.50849624,3.9577 2.90052632,3.9357 C3.75075188,4.0297 2.68052632,3.8517 3.31571429,3.8057 C3.71105263,3.7857 3.6018797,3.9737 3.58699248,4.0817 L4.29496241,4.0657 C4.27345865,4.2287 3.82518797,4.0587 4.11466165,4.2257 L5.0062406,4.0497 C5.17827068,4.4607 5.97721805,3.8477 6.39075188,4.2337 C5.74894737,4.3327 6.45030075,4.3717 6.3493985,4.5057 L7.92578947,4.4747 C8.07466165,4.5317 7.51225564,4.6037 7.75210526,4.5817 C8.04984962,4.6947 8.23676692,4.4797 8.39721805,4.4817 C8.53616541,4.5947 9.57330827,4.4727 9.53360902,4.7447 C10.6038346,4.9237 9.97857143,4.3977 10.976015,4.5487 C11.11,4.7137 10.1853383,4.5917 10.6303008,4.7607 L11.6624812,4.6947 C11.5698496,4.7757 11.463985,4.9637 11.0769173,4.9307 C13.872406,5.1367 15.3892481,6.0027 17.9399248,5.7697 C18.3021805,5.9657 17.6818797,5.9027 17.4271429,6.0347 C19.2731579,5.7647 20.0340602,6.4547 21.608797,6.4247 L21.6352632,6.2627 C23.8352632,6.7577 26.473609,6.4457 28.9564662,6.6447 L28.6603759,6.5327 C28.9994737,6.3737 29.5503008,6.3557 29.957218,6.2807 C30.0200752,6.3627 29.6660902,6.6297 30.3856391,6.5587 C30.2351128,6.5017 29.9307519,6.4417 30.0200752,6.3627 C32.157218,6.7767 36.6515038,6.6537 40.1566165,6.8437 C44.8907519,6.6987 50.0301504,6.9937 54.6815789,6.8747 C53.9719549,6.8907 54.2680451,6.4887 54.803985,6.5787 C56.2728571,7.2527 57.3364662,6.4537 58.8351128,6.9117 C61.5429323,6.6817 63.9678947,7.2617 66.4821805,6.7287 L66.5334586,6.9207 C66.9106015,7.0077 67.0115038,6.8737 67.4068421,6.8527 L67.3985714,6.9067 C68.3331579,6.9747 69.4596241,6.7747 69.997218,6.8647 L70.0286466,6.6477 C70.582782,6.6277 70.3197744,6.8147 70.8871429,6.6887 L70.8706015,6.7967 L71.5322556,6.5887 C71.4727068,6.9687 73.0970677,6.6127 73.5436842,6.7827 C74.2615789,6.7117 75.6212782,6.5417 76.7113534,6.6137 C76.9164662,6.8077 78.2513534,6.8007 79.1032331,6.8947 C80.7606767,6.8397 83.1277444,6.7657 85.2384211,6.8267 L85.1970677,6.5797 L85.7478947,6.5617 C85.7412782,6.6157 85.8140602,6.6437 85.7330075,6.6707 C86.1614286,6.9487 87.0017293,6.5797 87.4466917,6.7507 C87.1654887,6.5297 87.0612782,6.7177 86.7469925,6.7127 C86.2937594,6.5977 86.7221805,6.3587 87.3342105,6.4777 L87.3226316,6.5317 L87.7378195,6.4007 C87.7857895,6.5927 88.1645865,6.6807 88.2158647,6.8707 C90.028797,6.8177 91.2594737,6.4827 93.1319549,6.5657 C92.9417293,6.7797 94.4751128,6.5057 94.1045865,6.8787 C95.2260902,6.7337 93.9143609,6.5777 94.4254887,6.3137 C94.7381203,6.3187 95.0672932,6.2147 95.125188,6.3517 C94.9796241,6.4417 95.3832331,6.5767 95.1284962,6.6127 L95.8794737,6.5797 C95.9506015,6.6087 95.7868421,6.6607 95.7041353,6.6857 C97.2292481,6.4647 98.4185714,6.9177 99.7865414,6.6947 C99.8874436,6.5597 99.2423308,6.6597 99.3399248,6.5237 C100.71782,6.2457 100.562331,6.7607 101.847594,6.5627 L101.584586,6.7487 C101.99812,6.6187 102.178421,6.4587 102.863233,6.6057 C102.985639,6.8257 102.28594,6.7867 101.956767,6.8907 C102.426541,6.8977 103.614211,6.8357 103.250301,6.6387 C103.811053,6.5647 104.01782,6.7587 104.32218,6.8177 C104.332105,6.7637 103.796165,6.6737 104.123684,6.5707 C104.891203,6.6907 106.07391,6.6817 107.01015,6.6967 C107.00188,6.7507 107.068045,6.8317 106.986992,6.8587 C107.736316,6.5717 107.66188,7.0597 108.695714,6.9937"
            id="Fill-59"
            fill="#F4DB8F"
            mask="url(#mask-14)"
          ></path>
        </g>
        <path
          d="M159.344,5.453 L158.886,5.421 C158.886,5.47 158.866,5.525 158.656,5.579 L159.344,5.453 Z"
          id="Fill-62"
          fill="#F4DB8F"
        ></path>
        <path
          d="M141.082,5.47 C141.026,5.488 140.968,5.504 140.918,5.53 C141.03,5.52 141.066,5.495 141.082,5.47"
          id="Fill-64"
          fill="#F4DB8F"
        ></path>
        <path
          d="M136.989138,5.5805 C137.363138,5.5315 137.029138,5.4745 136.843138,5.4195 C136.835138,5.4635 136.845138,5.5165 136.989138,5.5805"
          id="Fill-66"
          fill="#F4DB8F"
        ></path>
        <path
          d="M170.05587,5.452 C169.97587,5.473 169.92787,5.502 169.94187,5.548 C170.04987,5.508 170.07187,5.478 170.05587,5.452"
          id="Fill-68"
          fill="#F4DB8F"
        ></path>
        <path
          d="M198.067,5.5165 C198.025,5.5055 197.983,5.4995 197.933,5.4835 C197.957,5.4995 198.005,5.5105 198.067,5.5165"
          id="Fill-70"
          fill="#F4DB8F"
        ></path>
        <path
          d="M196.191,4.48229913 C196.099,4.48229913 195.979,4.48929913 195.809,4.51429913 C195.975,4.52529913 196.095,4.50829913 196.191,4.48229913"
          id="Fill-72"
          fill="#F4DB8F"
        ></path>
        <path
          d="M163.178,5.465 C163.052,5.472 162.928,5.489 162.822,5.535 C163.016,5.529 163.112,5.499 163.178,5.465"
          id="Fill-74"
          fill="#F4DB8F"
        ></path>
        <path
          d="M195.241,4.5 L194.767,4.479 C194.765,4.493 194.759,4.503 194.759,4.521 L195.241,4.5 Z"
          id="Fill-76"
          fill="#F4DB8F"
        ></path>
        <path
          d="M198.298,5.50024422 C198.114,5.49424422 197.862,5.49524422 197.702,5.47624422 C197.938,5.53424422 198.124,5.53524422 198.298,5.50024422"
          id="Fill-78"
          fill="#F4DB8F"
        ></path>
        <path
          d="M180.12283,4.46909548 C180.10883,4.47209548 180.09083,4.47109548 180.07283,4.47409548 C179.70483,4.56909548 179.93483,4.52909548 180.12283,4.46909548"
          id="Fill-80"
          fill="#F4DB8F"
        ></path>
        <path
          d="M194.101,5.478 C194.081,5.476 194.059,5.473 194.037,5.47 L193.899,5.53 L194.101,5.478 Z"
          id="Fill-82"
          fill="#F4DB8F"
        ></path>
        <path
          d="M200.101,5.468 C200.013,5.473 199.931,5.483 199.865,5.509 C199.939,5.517 200.025,5.524 200.135,5.532 C200.107,5.505 200.101,5.485 200.101,5.468"
          id="Fill-84"
          fill="#F4DB8F"
        ></path>
        <path
          d="M185.918366,5.589 C186.050366,5.508 186.100366,5.452 186.104366,5.411 C185.948366,5.414 185.848366,5.452 185.918366,5.589"
          id="Fill-86"
          fill="#F4DB8F"
        ></path>
      </g>
    </g>
  </g>
</svg>
