<svg width="256" height="256" viewBox="0 0 256 256" class="icon">
  <path d="M128,23.072 C162.176,23.072 166.229333,23.2 179.733333,23.8186667 C214.421333,25.3973333 230.624,41.856 232.202667,76.288 C232.821333,89.7813333 232.938667,93.8346667 232.938667,128.010667 C232.938667,162.197333 232.810667,166.24 232.202667,179.733333 C230.613333,214.133333 214.453333,230.624 179.733333,232.202667 C166.229333,232.821333 162.197333,232.949333 128,232.949333 C93.824,232.949333 89.7706667,232.821333 76.2773333,232.202667 C41.504,230.613333 25.3866667,214.08 23.808,179.722667 C23.1893333,166.229333 23.0613333,162.186667 23.0613333,128 C23.0613333,93.824 23.2,89.7813333 23.808,76.2773333 C25.3973333,41.856 41.5573333,25.3866667 76.2773333,23.808 C89.7813333,23.2 93.824,23.072 128,23.072 L128,23.072 Z M128,-4.85722573e-16 C93.2373333,4.69531821e-15 88.8853333,0.149333333 75.232,0.768 C28.7466667,2.90133333 2.912,28.6933333 0.778666667,75.2213333 C0.149333333,88.8853333 -4.85722573e-16,93.2373333 -4.85722573e-16,128 C-4.85722573e-16,162.762667 0.149333333,167.125333 0.768,180.778667 C2.90133333,227.264 28.6933333,253.098667 75.2213333,255.232 C88.8853333,255.850667 93.2373333,256 128,256 C162.762667,256 167.125333,255.850667 180.778667,255.232 C227.221333,253.098667 253.12,227.306667 255.221333,180.778667 C255.850667,167.125333 256,162.762667 256,128 C256,93.2373333 255.850667,88.8853333 255.232,75.232 C253.141333,28.7893333 227.317333,2.912 180.789333,0.778666667 C167.125333,0.149333333 162.762667,-4.85722573e-16 128,-4.85722573e-16 Z M128,62.272 C91.7013333,62.272 62.272,91.7013333 62.272,128 C62.272,164.298667 91.7013333,193.738667 128,193.738667 C164.298667,193.738667 193.728,164.309333 193.728,128 C193.728,91.7013333 164.298667,62.272 128,62.272 Z M128,170.666667 C104.437333,170.666667 85.3333333,151.573333 85.3333333,128 C85.3333333,104.437333 104.437333,85.3333333 128,85.3333333 C151.562667,85.3333333 170.666667,104.437333 170.666667,128 C170.666667,151.573333 151.562667,170.666667 128,170.666667 Z M196.330667,44.32 C187.84,44.32 180.96,51.2 180.96,59.68 C180.96,68.16 187.84,75.04 196.330667,75.04 C204.810667,75.04 211.68,68.16 211.68,59.68 C211.68,51.2 204.810667,44.32 196.330667,44.32 Z"></path>
</svg>
