<svg
  width="47px"
  height="75px"
  viewBox="0 0 47 75"
  version="1.1"
  xmlns="http://www.w3.org/2000/svg"
  xmlns:xlink="http://www.w3.org/1999/xlink"
>
  <title>Group 14</title>
  <desc>Created with Sketch.</desc>
  <g
    id="Homepage-Layout"
    stroke="none"
    stroke-width="1"
    fill="none"
    fill-rule="evenodd"
  >
    <g
      id="UnMute-Homepage-v2-Copy"
      transform="translate(-380.000000, -1059.000000)"
      fill="#E0BC54"
    >
      <g id="Group-14" transform="translate(380.000000, 1059.000000)">
        <path
          d="M12.3660981,37.5971686 C14.1060648,36.98201 15.5421438,35.6994107 16.3306343,34.0560324 C16.5141488,33.498354 16.6976634,32.9406755 16.8811779,32.3814682 C17.1082383,31.162158 17.0099491,29.9666959 16.5856884,28.7975279 C15.5993755,25.0448164 14.5968884,21.2973025 13.5860032,17.5507059 L12.7222407,15.9131368 C12.0077782,14.9268042 11.0951822,14.1743662 9.98351949,13.6546001 C9.045107,13.2195253 8.02209119,13.0000005 6.99720914,13.0000005 C6.19721015,12.9996948 5.39658909,13.1333053 4.6339151,13.4026664 C2.89394842,14.0178249 1.45786937,15.3004243 0.669378928,16.9438025 C0.485864387,17.501481 0.302349846,18.0594652 0.118835305,18.6183667 C-0.108225059,19.8376769 -0.00993591542,21.033139 0.414013779,22.2023071 C1.42489896,25.9489037 2.42614186,29.6967233 3.41400996,33.4494348 L4.27777247,35.0866981 C4.99223502,36.0733365 5.90483106,36.8257745 7.01649372,37.3452348 C8.68709812,38.1202979 10.6261314,38.2111041 12.3660981,37.5971686"
          id="Fill-1"
        ></path>
        <path
          d="M22.1190739,61.280814 C21.8775419,59.4360381 21.1181278,57.7987203 19.6109055,56.5847739 C18.3430195,55.5643945 16.7187954,55 15.0710455,55 C14.8956996,55 14.7200399,55.0066435 14.5443803,55.0196285 C12.6598036,55.1576319 10.8793679,56.0387999 9.66763023,57.4342344 C8.54278133,58.7294126 7.81724438,60.6049901 8.04026936,62.3117625 C8.32101107,64.446738 8.60018439,66.5832233 8.8809261,68.7194067 C9.12214439,70.5641825 9.88187223,72.2015004 11.3890945,73.4154468 C12.7921757,74.5442358 14.6312691,75.1152738 16.4556197,74.9805922 C18.3389417,74.8425888 20.1206321,73.9614207 21.3323698,72.5659863 C22.4572187,71.2708081 23.1827556,69.3952306 22.9597306,67.6884582 C22.6789889,65.5531807 22.3998156,63.4169973 22.1190739,61.280814"
          id="Fill-3"
        ></path>
        <path
          d="M44.5563511,1.56939559 C43.320163,0.55800068 41.7364976,0.000298875565 40.1305227,0 C39.9602985,0 39.7900743,0.00657526243 39.6201558,0.0191280362 C37.7840574,0.156610796 36.0481987,1.02872969 34.8676314,2.40893705 L33.9220774,3.85878242 C33.4098769,4.93055019 33.1974787,6.05611557 33.2833548,7.23637518 C33.2775482,8.11028733 33.2598229,8.98360173 33.2268171,9.85661726 C33.0196143,12.446374 32.5391971,15.0074387 32.0358592,17.5556518 C31.7400297,19.0536161 31.4438947,20.5515805 31.1297287,22.0447628 C30.3754859,25.6369482 33.0015834,29.225846 36.6319117,29.8878554 C38.4417278,30.2181129 40.3481162,29.8107455 41.8535458,28.7739461 C43.3314705,27.755976 44.2901657,26.2278252 44.6517011,24.5068997 C45.0315729,22.6995992 45.3860793,20.8878155 45.7442529,19.0757329 C46.0116607,17.7179412 46.2433123,16.3544709 46.4462366,14.9850231 C46.8734779,12.086229 46.9798298,9.14290241 47,6.216014 C46.871033,5.62872351 46.7420661,5.04023753 46.6130991,4.45294704 C46.1895251,3.31124238 45.5043499,2.35035744 44.5563511,1.56939559"
          id="Fill-6"
        ></path>
      </g>
    </g>
  </g>
</svg>
