<svg width="256" height="256" viewBox="0 0 256 256" class="icon">
  <path d="M246,129 C246,63.8303516 193.169648,11 128,11 C62.8303516,11 10,63.8303516 10,129 C10,187.897211 53.1508945,236.71418 109.5625,245.566484 L109.5625,163.109375 L79.6015625,163.109375 L79.6015625,129 L109.5625,129 L109.5625,103.003125 C109.5625,73.429375 127.17907,57.09375 154.132852,57.09375 C167.04302,57.09375 180.546875,59.3984375 180.546875,59.3984375 L180.546875,88.4375 L165.667352,88.4375 C151.008848,88.4375 146.4375,97.5334102 146.4375,106.86509 L146.4375,129 L179.164062,129 L173.932422,163.109375 L146.4375,163.109375 L146.4375,245.566484 C202.849105,236.71418 246,187.897211 246,129"></path>
</svg>

