<svg
  width="360px"
  height="247px"
  viewBox="0 0 360 247"
  version="1.1"
  xmlns="http://www.w3.org/2000/svg"
  xmlns:xlink="http://www.w3.org/1999/xlink"
>
  <title>Group 19</title>
  <desc>Created with Sketch.</desc>
  <g
    id="Page-1"
    stroke="none"
    stroke-width="1"
    fill="none"
    fill-rule="evenodd"
  >
    <g
      id="Group-19"
      transform="translate(180.000000, 123.500000) scale(-1, 1) translate(-180.000000, -123.500000) "
      fill="#B2BDCB"
    >
      <path
        d="M13.9311022,26.58 C52.7365655,27.4315 91.5336102,25.63 130.244984,23.0145 C169.003403,20.3955 207.707843,16.9825 246.487556,14.673 C268.308387,13.373 290.151502,12.4325 312.009968,12.1615 C319.592093,12.067 319.612891,0.1605 312.009968,0.255 C273.171326,0.737 234.405479,3.3585 195.683211,6.2685 C156.961933,9.1785 118.248083,12.3655 79.4436102,13.9255 C57.6183227,14.803 35.7707508,15.153 13.9311022,14.674 C6.33956869,14.507 6.34154952,26.4135 13.9311022,26.58"
        id="Fill-1"
      ></path>
      <path
        d="M17.7019661,53.8244036 C57.9104675,55.131953 98.1264136,56.1952677 138.347819,57.0083907 C178.404452,57.8180388 218.466047,58.3814665 258.529132,58.6986739 C281.116388,58.8773822 303.70414,58.9766646 326.291892,59 C333.896746,59.0079386 333.908657,47.1868777 326.291892,47.1794315 C286.062546,47.1377329 245.833199,46.8517995 205.606831,46.3156745 C165.546228,45.7815351 125.488603,45.0016717 85.4369329,43.9745951 C62.8561291,43.3957786 40.2778068,42.7380326 17.7019661,42.0038391 C10.0951267,41.7561295 10.1035638,53.5771904 17.7019661,53.8244036"
        id="Fill-4"
      ></path>
      <path
        d="M5.68893542,75.5470029 C37.6855533,74.40665 69.7584421,74.0570599 101.71841,76.2772029 C129.825214,78.2294911 157.891902,80.6505253 186.014554,82.4078308 C220.19133,84.5437767 254.410203,86.1902967 288.653345,86.7338846 C298.53686,86.8909539 308.420376,86.9214815 318.304386,87 C325.894823,87.0598404 325.902252,75.3352793 318.304386,75.2752089 C296.361655,75.1009063 274.434772,74.8497923 252.503432,74.0491818 C205.768212,72.3416068 159.09193,69.1293173 112.483003,65.3837799 C76.917998,62.525512 41.3272395,62.5521005 5.68893542,63.8224418 C-1.87822385,64.0917739 -1.91437822,75.8178121 5.68893542,75.5470029"
        id="Fill-6"
      ></path>
      <path
        d="M27.8987121,101.6724 C68.73191,99.8068558 109.613166,97.9452342 150.49888,98.9424789 C170.741084,99.4361984 190.973379,100.639854 211.098164,102.8839 C231.144669,105.119611 251.056414,108.389828 270.91812,111.858122 C293.476507,115.797091 316.012104,119.866478 338.557115,123.880461 C341.688793,124.438408 344.915595,123.037167 345.813333,119.80323 C346.598606,116.975743 344.845738,113.183859 341.693252,112.62248 C301.335677,105.436827 261.013278,97.4299421 220.320289,92.3054574 C179.606988,87.178031 138.529538,86.4033767 97.5417629,87.3457093 C74.3155221,87.8796323 51.1056308,88.9371824 27.8987121,89.9976742 C24.7155082,90.1427993 22,92.5760961 22,95.8350369 C22,98.8841347 24.7011405,101.818505 27.8987121,101.6724"
        id="Fill-8"
      ></path>
      <path
        d="M21.6941831,133.038075 C62.7982484,131.832986 103.888934,134.012853 144.899345,136.58263 C165.507372,137.873658 186.109949,139.257007 206.729869,140.346203 C226.76457,141.403481 246.822561,142.014374 266.846361,143.272499 C289.253651,144.679911 311.608911,146.985001 333.548423,151.843664 C336.655385,152.531655 339.932808,150.909154 340.805433,147.759912 C341.619586,144.824777 339.808431,141.259106 336.685116,140.567677 C296.928392,131.763744 256.076551,131.057092 215.564146,129.09919 C174.158304,127.098564 132.832242,123.685616 91.409552,121.997312 C68.1846401,121.050526 44.9324742,120.66307 21.6941831,121.344677 C14.1180522,121.566642 14.0858429,133.261022 21.6941831,133.038075"
        id="Fill-10"
      ></path>
      <path
        d="M33.908676,156.076097 C54.5051713,154.672656 74.8331806,158.073965 94.9418354,162.151097 C115.662896,166.353527 136.27428,170.491828 157.300055,172.931694 C199.025551,177.772948 241.091493,177.861742 283.028899,179.00324 C306.748963,179.648478 330.471012,180.643466 354.091324,182.978752 C357.270972,183.293478 360,180.053971 360,177.105512 C360,173.667699 357.280401,171.547491 354.091324,171.232272 C312.243744,167.094465 270.157454,167.21039 228.16645,165.880945 C207.214124,165.217455 186.260309,164.188923 165.401283,162.066742 C144.754168,159.964788 124.47529,156.270458 104.169117,152.072961 C81.095206,147.303235 57.5925116,142.71603 33.908676,144.329617 C30.7245617,144.546176 28,146.87357 28,150.202857 C28,153.213472 30.7081845,156.293643 33.908676,156.076097"
        id="Fill-12"
      ></path>
      <path
        d="M15.8990218,194.171886 C57.5717019,191.665022 99.2052402,189.997907 140.599468,196.640603 C160.998312,199.914885 181.21631,204.261768 201.685014,207.111964 C222.86273,210.061246 244.182645,211.660982 265.546657,212.396197 C289.453897,213.219102 313.397306,213.16411 337.306528,212.454162 C344.881713,212.229238 344.913918,200.431121 337.306528,200.657036 C295.09924,201.909973 252.47576,201.667213 210.517196,196.479589 C190.167899,193.963311 170.092596,189.720468 149.890948,186.283686 C129.003079,182.729982 108.040395,180.495107 86.8473196,180.090343 C63.1759213,179.639008 39.5183961,180.953378 15.8990218,182.37476 C12.7181282,182.565996 10,184.949003 10,188.273323 C10,191.318222 12.7027687,194.364608 15.8990218,194.171886"
        id="Fill-14"
      ></path>
      <path
        d="M27.8442009,240.0397 C68.2264686,238.5642 108.640441,238.0067 149.046982,238.3882 C189.453029,238.7702 229.851149,240.0837 270.198244,242.3287 C292.831872,243.5882 315.448656,245.1442 338.043644,246.9852 C341.222527,247.2442 343.941693,244.0637 343.941693,241.0317 C343.941693,237.5952 341.231444,235.3387 338.043644,235.0787 C297.765902,231.7977 257.41633,229.4312 217.032081,228.0042 C176.649318,226.5767 136.233364,226.0812 95.8273178,226.5182 C73.1609948,226.7627 50.497644,227.3057 27.8442009,228.1337 C20.2757148,228.4097 20.2390563,240.3177 27.8442009,240.0397"
        id="Fill-16"
      ></path>
    </g>
  </g>
</svg>
