<svg
  width="280px"
  height="215px"
  viewBox="0 0 280 215"
  version="1.1"
  xmlns="http://www.w3.org/2000/svg"
  xmlns:xlink="http://www.w3.org/1999/xlink"
>
  <title>Group 3</title>
  <desc>Created with Sketch.</desc>
  <g
    id="Homepage-Layout"
    stroke="none"
    stroke-width="1"
    fill="none"
    fill-rule="evenodd"
  >
    <g
      id="UnMute-Homepage-v2-Copy"
      transform="translate(-123.000000, -612.000000)"
      fill="#C55A3A"
    >
      <g id="Group-3" transform="translate(123.000000, 612.000000)">
        <path
          d="M73.1642398,57.7535276 C76.1816718,54.8987039 79.5328041,52.3962556 82.85734,49.9033872 C82.4421886,50.2153602 82.0270372,50.5277497 81.6118857,50.8401393 C86.6830498,47.0331523 91.9848536,43.5593809 97.4503907,40.3492662 C102.267643,37.5206832 107.258187,34.8899469 112.410803,32.7103011 C119.902644,29.943363 127.765588,28.4122379 135.660114,27.317625 C137.818569,27.0960367 139.977024,26.8740319 142.137141,26.6528601 C143.052635,26.5603928 143.985999,26.5683067 144.904817,26.5312364 C146.909513,26.4479326 148.914208,26.3650452 150.918903,26.2817413 C153.378228,26.1792776 155.834645,26.1322109 158.29397,26.0868103 C163.027279,26.0022569 167.78843,25.7939972 172.513842,26.0818121 C174.753748,26.2188469 176.989083,26.4262736 179.212782,26.7215858 C183.5139,27.4913136 187.761411,28.5917577 191.828149,30.1916086 C194.785324,31.6665036 197.485678,33.5404242 200.10666,35.5530458 C203.554619,38.3683001 206.876661,41.3418318 210.224885,44.2720455 C214.266274,47.8087114 218.15889,51.4899094 221.520827,55.6796777 C224.017138,59.2867353 225.998977,63.2095146 227.688672,67.2572498 C228.843533,70.3140853 229.890762,73.4075746 230.966249,76.4939831 C231.887977,79.1376314 232.992138,81.7229671 234.017758,84.3278792 C234.741675,86.1680617 235.399518,88.1336165 236.235223,89.9038238 C236.930051,91.3728876 237.626541,92.8423679 238.321369,94.3097656 C239.431765,96.6572687 240.546731,98.9810302 241.749797,101.279801 C244.646715,106.814093 247.652926,112.30965 250.093136,118.065531 C252.094922,123.579414 253.271392,129.335711 254.037698,135.146573 C254.434564,140.310164 254.787381,145.462092 254.869247,150.644009 C254.924933,154.145687 254.963997,157.647782 254.993502,161.14946 C255.015527,163.664821 255.034227,166.180181 255.042954,168.695958 C255.060824,173.622549 255.057499,178.547474 255.060824,183.474065 C255.06207,188.023289 255.284399,192.645404 254.712163,197.171304 L254.513938,198.442937 C254.473212,200.73546 255.007216,202.8847 256.117611,204.888991 C257.703414,207.710493 260.380497,209.835158 263.47938,210.744837 C266.682155,211.687003 270.196605,211.280064 273.105574,209.638561 C273.96746,208.990874 274.827684,208.341936 275.689985,207.694249 C277.24005,206.161458 278.325927,204.350848 278.947615,202.259921 C279.386038,199.829114 279.730127,197.442458 279.910484,194.990408 C280.012713,193.576325 279.985286,192.14808 279.993181,190.730665 C280.007726,188.106593 279.994844,185.478772 279.993181,182.854284 C279.990688,178.435847 279.980714,174.017826 279.96991,169.599805 C279.966585,168.134906 279.967416,166.670841 279.962429,165.205942 C279.94456,159.992786 279.93334,154.77005 279.749659,149.560642 C279.444633,140.827897 278.975458,132.056832 277.352253,123.453209 C276.733474,120.16812 275.939741,116.908856 274.897499,113.731647 C274.061794,111.180466 273.021214,108.68968 271.998503,106.209724 C271.339414,104.610706 270.636275,103.027099 269.894488,101.465152 C268.175703,97.846848 266.256614,94.3164299 264.398199,90.7660189 C263.388371,88.8362847 262.359427,86.9211287 261.428972,84.9543243 C260.252502,82.4685367 259.07437,79.9860814 257.901224,77.5002938 C257.154866,75.6051308 256.409754,73.7099677 255.66298,71.8160541 C254.645257,69.2307185 253.807474,66.5658276 252.893642,63.9413392 C251.754157,60.6708292 250.458835,57.4494684 249.1178,54.2589301 C247.573969,50.5852294 245.715553,46.9989977 243.468582,43.7055792 C239.459192,37.8305736 234.709261,32.621166 229.36881,27.9478188 C226.560408,25.489938 223.755331,23.0278921 220.922826,20.5970851 C217.240902,17.4390354 213.455503,14.3805337 209.48476,11.5915201 C207.928046,10.4981568 206.29653,9.54474396 204.587303,8.71337132 C201.938063,7.42341087 199.201139,6.27465048 196.415593,5.3112412 C192.558716,3.97879577 188.544339,3.08536175 184.519988,2.44600453 C179.615882,1.66503073 174.716763,1.03358739 169.744504,0.968610367 C169.082505,0.95986346 168.420507,0.956114786 167.758509,0.956114786 C164.239487,0.956114786 160.71631,1.06524286 157.199783,1.12813728 C154.76456,1.17228833 152.336402,1.25850784 149.901179,1.35930553 C147.245706,1.47009967 144.565299,1.47801354 141.919384,1.74833461 C137.159895,2.23607877 132.392095,2.67050847 127.6538,3.34110463 C123.689707,3.90215621 119.775897,4.65230757 115.884943,5.60238823 C114.034423,6.05472825 112.196786,6.55746712 110.373693,7.10935527 C107.482594,7.98446244 104.693724,9.10198388 101.890309,10.2249201 C95.9701411,12.5936657 90.2789511,15.5921885 84.7822464,18.8202136 C81.9788314,20.4671311 79.2352581,22.2110977 76.5195278,23.994217 C73.0358296,26.2800753 69.7146182,28.7941861 66.3884199,31.3032987 C66.258763,31.4007643 66.1286905,31.4994794 65.9990336,31.5973614 C63.6153413,33.3954755 61.231649,35.2002539 58.9215121,37.0920848 C56.4588621,39.1063724 54.1828016,41.3122589 52.0222688,43.6456004 C49.2255029,46.6653657 46.6473253,49.8659005 44.1036397,53.1001733 C42.4110353,55.2544114 40.824816,57.4890378 39.1613014,59.6649349 C36.5116462,62.959603 33.7971625,66.2092871 31.3980943,69.693055 C29.175642,72.9177479 27.1838293,76.3148797 25.3333095,79.7657426 C23.0348084,84.0496442 21.0866304,88.5143152 19.3416645,93.0506276 C18.3692378,95.577234 17.4504191,98.1250829 16.4148262,100.627531 C15.0496886,103.925532 13.684551,107.221866 12.3189978,110.519866 C10.2723304,115.466033 8.10514847,120.378046 6.36309162,125.441255 C5.02081022,129.342792 3.81151025,133.290146 2.89601616,137.313723 C1.79517918,142.157427 1.07126147,147.111925 0.543906948,152.049762 C-0.0407958176,157.523243 -0.0179396327,163.050038 0.0128123251,168.549343 C0.043564283,174.135284 0.0177991291,179.730389 0.209375515,185.314247 C0.29041108,187.727144 0.311604997,190.150037 0.464118085,192.561268 C0.66691478,195.75847 0.865140238,198.95359 1.09411765,202.149127 C1.21754105,203.258734 1.34054888,204.370008 1.46397228,205.479615 C2.01584525,207.666342 3.07263213,209.568586 4.63765744,211.187597 C6.89584851,213.502611 10.0238213,214.872543 13.2540236,214.952515 C16.5901954,215.033736 19.8839795,213.737112 22.2701652,211.400438 C22.9292544,210.564067 23.5883437,209.728113 24.2474329,208.893408 C25.3707105,207.006159 25.9628935,204.962298 26.0281375,202.765992 C25.5963634,196.763948 25.1953413,190.753574 25.1093189,184.735285 C25.019972,178.523316 24.961377,172.311346 24.9273005,166.09771 C24.896133,160.328917 25.1674983,154.577618 25.9433619,148.865055 C27.0687173,142.479813 28.8710314,136.253682 31.1138464,130.167917 C32.6398085,126.025632 34.4176041,121.975398 36.1056372,117.89684 C37.3606496,114.865829 38.6152463,111.836067 39.8702587,108.804639 C41.4656204,104.94767 42.8411471,101.001982 44.4352621,97.1454294 C45.8739551,94.0552723 47.514198,91.0567494 49.2479435,88.1252862 C51.0481798,85.0763645 53.0000979,82.1374039 55.1456704,79.3267312 C56.9758274,77.0396234 58.8201138,74.7637617 60.6112075,72.4441653 C62.0295377,70.6043993 63.3851172,68.7167336 64.7918115,66.8669711 C65.3947992,66.1276493 66.0077605,65.3954082 66.6290332,64.669415 C68.6948168,62.2577679 70.8653232,59.9302577 73.1642398,57.7535276"
          id="Fill-1"
        ></path>
        <path
          d="M101.558167,92.5933269 C106.073159,89.5269622 111.216512,87.4429684 116.216038,85.2839207 C117.815539,84.7105931 119.430375,84.2144041 121.101167,83.8353824 C122.942312,83.4175829 124.807498,83.1002721 126.678486,82.8517606 C136.1843,81.9323516 145.764722,81.9190087 155.304525,82.0553564 C156.622589,82.0741199 157.953503,82.1766934 159.271567,82.3330555 C160.884746,82.6562038 162.466423,83.0806747 164.012454,83.6414934 C165.107111,84.2298318 166.147056,84.9040651 167.157157,85.6341718 C169.125964,87.3216314 171.0069,89.1337637 172.921824,90.8716762 C174.513449,92.3164618 176.057823,93.815036 177.670587,95.2335528 C179.354227,96.7141975 181.025434,98.209436 182.725239,99.6704833 C185.587678,102.129746 188.5069,104.53397 191.018269,107.372671 C191.373069,107.775043 191.71875,108.185337 192.057384,108.601886 C193.28965,110.42611 194.348247,112.354576 195.248095,114.3656 C196.393734,117.667551 197.153486,121.081248 197.603203,124.556239 C197.824953,126.277889 198.072815,127.99954 198.27011,129.722859 C198.566882,132.303459 198.859923,134.883225 199.150478,137.463407 C199.348188,139.303059 199.542167,141.144379 199.723712,142.987367 C199.939659,145.183108 200.136954,147.380933 200.28907,149.580843 C200.619415,154.336753 200.797644,159.088075 200.896292,163.851907 C200.974215,167.552476 200.862304,171.27431 201.132548,174.966957 C201.255651,176.077754 201.378753,177.190218 201.501855,178.301014 C202.050634,180.490083 203.106329,182.393948 204.667282,184.014693 C206.917525,186.332188 210.037773,187.704004 213.25957,187.783645 C216.588305,187.864953 219.873518,186.568607 222.253495,184.228179 C222.910869,183.390913 223.568244,182.555314 224.225618,181.718047 C225.344315,179.828776 225.937029,177.783143 226.000031,175.584066 C225.825533,173.193186 225.849573,170.795634 225.822217,168.39975 C225.796104,166.08851 225.749267,163.778938 225.700773,161.469365 C225.633211,158.195352 225.486069,154.92384 225.258931,151.658166 C225.176448,150.471065 225.084432,149.283964 224.979982,148.098531 C224.481356,142.431969 223.887398,136.783337 223.249504,131.130118 C222.692435,126.204503 222.192151,121.263045 221.405043,116.367035 C220.886936,113.143474 220.050089,109.998303 218.882898,106.951119 C217.367123,102.994533 215.770939,99.1851354 213.321329,95.715565 C211.907518,93.7153812 210.426146,91.7431342 208.816698,89.8943089 C207.724114,88.6388256 206.52252,87.4854989 205.305176,86.3517695 C204.273521,85.3923318 203.197102,84.4887674 202.128558,83.5697753 C198.530822,80.4800606 194.99816,77.3252992 191.505704,74.1150814 C189.941435,72.6765502 188.364732,71.2546976 186.794245,69.8278415 C183.805389,67.1129788 180.716227,64.3797695 177.194343,62.3812536 C175.097874,61.1920679 172.823177,60.2672383 170.554696,59.4574912 C168.989184,58.8987573 167.371446,58.5130642 165.737958,58.2115981 C162.400934,57.5940721 158.984743,57.0828723 155.579743,57.0340873 C154.098372,57.0128221 152.615342,56.9915569 151.133555,56.9702916 C150.436391,56.9602844 149.738397,56.9561148 149.040817,56.9561148 C147.705344,56.9561148 146.369043,56.9719595 145.034813,56.9932247 C140.230924,57.0716142 135.451075,57.2588318 130.657134,57.5598809 C127.403007,57.7637771 124.148465,58.1348764 120.915063,58.5422518 C117.668811,58.950878 114.396861,59.5650683 111.288218,60.6041464 C107.054247,62.0180766 102.970734,63.9236092 98.892195,65.7365755 C95.8921476,67.0704483 92.9372792,68.538167 90.1444747,70.2727438 C88.0380585,71.5803477 86.0642777,73.1293748 84.1522553,74.7046706 C82.8714945,75.7600105 81.6425445,76.8966586 80.4832281,78.0858443 C78.4692421,80.147739 76.6637425,82.3989361 74.7081991,84.5146193 C73.1505619,86.1987432 71.6028724,87.8895385 70.0174647,89.5473936 C69.052542,90.5572841 68.0876193,91.5655068 67.1243546,92.5753974 C67.0327533,92.6708825 66.9444678,92.7701203 66.8536955,92.8664394 C64.3576627,95.5204251 62.1190256,98.4817145 59.9628711,101.40506 C58.0363416,104.01443 56.391248,106.753894 55.0425116,109.708512 C53.3538969,113.412417 51.6424855,117.246415 50.5349798,121.182987 C49.9231989,123.35913 49.2218892,125.526934 48.6959069,127.724343 C48.156661,129.973455 47.606224,132.222984 47.0785837,134.473764 C46.5666939,136.651575 45.9321163,138.832722 45.5433288,141.03305 C45.3103878,142.347325 45.0770324,143.660349 44.8457494,144.974625 C44.5087725,146.875571 44.0992607,148.81863 43.9048669,150.730834 C43.6781432,152.970356 43.3415809,155.224472 43.2458347,157.472334 C43.150503,159.765644 42.9983867,162.061873 43.0000447,164.356852 C43.0017026,166.82779 43.0062619,169.29706 43.0551712,171.767998 C43.1571347,176.91502 43.4870653,182.016177 44.0263112,187.135263 C44.1494134,188.247727 44.2725157,189.358524 44.3956179,190.470988 C44.944397,192.660057 46.000092,194.564339 47.5610451,196.182999 C49.8112878,198.50091 52.931536,199.873978 56.1533332,199.952367 C59.4820677,200.035344 62.7672812,198.736913 65.1472579,196.398153 L67.1193808,193.886769 C68.2380776,191.997082 68.8307922,189.953116 68.893794,187.752789 C68.3968257,183.027736 68.0391245,178.310604 67.9466942,173.558031 C67.8965414,171.057905 67.8708433,168.564034 67.8691854,166.063909 C67.8675274,163.677615 67.9790241,161.304664 68.0797441,158.921706 C68.1821221,156.487461 68.4896704,154.06364 68.7429212,151.641904 C68.9418743,150.403933 69.1511896,149.166797 69.4363557,147.955095 C69.9478311,145.769361 70.4514312,143.58196 70.9745121,141.399562 C72.1595266,136.454351 73.3155272,131.493295 74.9104681,126.660664 C75.4244303,125.100379 75.9955916,123.565111 76.6156622,122.047774 C77.2867145,120.615914 78.0162093,119.216995 78.8414503,117.863524 C79.7135281,116.436668 80.6830101,115.066103 81.6889669,113.727643 C84.0701871,110.851832 86.6826903,108.185337 89.2442118,105.471308 C89.7208704,104.96678 90.1962854,104.460584 90.6675557,103.950635 C94.2354484,100.092035 97.5227343,95.969497 101.558167,92.5933269"
          id="Fill-4"
        ></path>
        <path
          d="M108.466364,175.876895 C108.305141,172.242809 108.126419,168.605834 108.058097,164.968858 C107.978527,160.743743 107.79189,156.441448 108.245567,152.22954 C108.532187,150.901788 108.910043,149.607055 109.384966,148.332958 C110.277321,146.597016 111.322569,144.954351 112.480714,143.378136 C115.022803,140.444453 117.910668,137.851271 120.82103,135.27625 C122.458682,133.827981 124.091751,132.352472 125.796891,130.975193 C127.453706,129.8666 129.181343,128.902876 130.998549,128.080306 C133.871417,127.106676 136.824272,126.464056 139.835034,125.996433 C140.225388,125.935761 140.618241,125.882519 141.011094,125.833817 C142.057175,125.749208 143.093673,125.697616 144.134755,125.732286 C144.187663,125.747969 144.240154,125.764479 144.293063,125.780988 C145.244992,126.30144 146.157344,126.890406 147.040951,127.519406 C150.491225,130.465058 153.497822,133.965833 156.290703,137.536358 C157.960016,139.8786 159.402699,142.376028 160.582508,144.993561 C161.875632,148.637965 162.737576,152.397521 163.327063,156.21651 C163.441212,157.431999 163.536196,158.648727 163.602436,159.869169 C163.660759,160.968681 163.706585,162.068193 163.742413,163.168118 C163.813651,165.444736 164.031949,167.675541 164.371894,169.940602 C164.785161,170.969537 165.197177,171.999711 165.608777,173.028646 C166.697351,174.921013 168.181694,176.431604 170.062639,177.558356 C172.891348,179.243119 176.319959,179.75119 179.522357,178.959574 C182.726838,178.167958 185.512637,176.125358 187.211945,173.323335 C187.639793,172.356309 188.06764,171.390109 188.495904,170.423083 C189.071228,168.453124 189.153714,166.47037 188.745447,164.478535 C188.672959,163.014995 188.653795,161.546916 188.575475,160.08709 C188.406335,156.960662 188.105134,153.783055 187.651041,150.690883 C186.993231,146.206986 185.892576,141.822145 184.335745,137.582171 C183.550872,135.445056 182.6531,133.343436 181.633266,131.285978 C179.144919,126.270485 175.563415,121.917424 172.023572,117.603159 C170.290519,115.492872 168.430404,113.458114 166.451557,111.571938 C164.681011,109.885524 162.705497,108.400522 160.767478,106.915933 C159.511015,105.953447 158.173315,105.080937 156.773958,104.336372 C155.296281,103.550947 153.726118,102.935154 152.176786,102.306567 C151.481898,102.02426 150.762432,101.821196 150.0288,101.669725 C147.965385,101.241311 145.919882,100.956115 143.844385,100.956115 C143.295724,100.956115 142.74498,100.975513 142.19132,101.018024 C139.584242,101.219849 136.985496,101.576035 134.390083,101.893837 C131.885489,102.201733 129.410056,102.722186 126.982116,103.404428 C124.531679,104.092861 122.174978,105.080937 119.820359,106.025675 C118.246864,106.656326 116.726693,107.405844 115.271929,108.266798 C113.174352,109.507051 111.183841,110.948716 109.2779,112.481595 C108.466364,113.134121 107.66816,113.801918 106.886204,114.480445 C104.972347,116.139207 103.068489,117.809524 101.170879,119.487684 C99.2703537,121.169558 97.4639795,122.943058 95.756756,124.816438 C94.1166049,126.615527 92.6097656,128.540499 91.1529182,130.488171 C90.1734935,131.799001 89.2703064,133.16101 88.4696028,134.586578 C87.2622983,136.735663 86.2937051,139.03787 85.3971837,141.327282 C84.7951978,142.866764 84.380265,144.459488 84.084063,146.083167 C83.4345848,149.628517 83.0034046,153.117322 83.0000718,156.714262 C82.9967391,162.905209 83.1987897,169.081711 83.4704123,175.266055 C83.5941423,176.366805 83.7178723,177.46673 83.8416022,178.566242 C84.394846,180.734725 85.4542577,182.619249 87.0227537,184.221879 C89.2865538,186.515831 92.422296,187.874951 95.6609382,187.952544 C99.00498,188.033026 102.306945,186.749849 104.699058,184.432784 C106.884537,182.317544 108.603009,178.978972 108.466364,175.876895"
          id="Fill-6"
        ></path>
        <path
          d="M130.807454,150.956115 C127.424649,150.956115 124.209298,152.124865 121.770396,154.509448 C119.453126,156.773198 118.083093,159.909448 118.003532,163.148615 C117.84066,169.831531 123.382862,175.956115 130.192209,175.956115 C133.575431,175.956115 136.790366,174.787365 139.229684,172.403198 C141.546537,170.139031 142.916571,167.002781 142.996548,163.763615 C143.159003,157.080698 137.617218,150.956115 130.807454,150.956115"
          id="Fill-8"
        ></path>
      </g>
    </g>
  </g>
</svg>
